<svg xmlns="http://www.w3.org/2000/svg" height="48" viewBox="0 -960 960 960" width="48"><path d="m834-326-152-46-274-276v-181q0-27 19-46t46-19q27 0 46.5 19t19.5 46v225l326 192q9 5 16 18t7 24q0 26-16.5 37.5T834-326ZM788-72 539-318v125l62 45q7 7 12 18t5 19q0 20-13.5 30.5T573-77l-100-26-98 26q-20 7-33.5-3.5T328-111q0-9 5.5-19t12.5-18l62-46v-218l-292 85q-23 7-40-5.5T59-371q0-11 6.5-23.5T81-412l229-135L72-787q-9-9-8.5-23.5T73-835q9-9 24-9t25 9l712 716q10 10 10.5 24T834-71q-9 10-23.5 9T788-72Z"/></svg>