<svg xmlns="http://www.w3.org/2000/svg" height="48" viewBox="0 -960 960 960" width="48"><path d="M798-71 631-239 524-133q-11.158 11.294-21.105 16.147Q492.947-112 484-112q-18.784 0-28.892-9.949Q445-131.897 445-148v-251L281-233q-10 10-24.5 10T233-233q-10-9-10-23.5t10-24.5l177-178L83.762-786.204Q75-794 75-805.5t9-20.5q8-8 19-8t21 8l713.841 714.825Q846-102 846-90.5T838-71q-9 9-20.5 9T798-71ZM514-221l65-65-65-65v130Zm27-271-49-50 112-110-90-88v220l-69-68v-225q0-15.103 10.108-25.051Q465.216-848 484-848q8.947 0 18.895 4.853Q512.842-838.294 524-828l144 144q5.818 5.6 10.409 14.8Q683-660 683-652q0 9-4.591 18.2T668-620L541-492Z"/></svg>