<svg xmlns="http://www.w3.org/2000/svg" height="48" viewBox="0 -960 960 960" width="48"><path d="m640-412-51-51q-8-6-8-16.5t8-16.5l51-51q10-12 21-8.5t16 17.5q3 14 5.5 29t2.5 29q0 15-4 29.5t-7 28.5q-4 16-13 19.5t-21-9.5Zm105 104q-7-7-7-16.5t5-17.5q14-33 22.5-67t8.5-71q0-36-8.5-70.5T743-618q-5-11-4.5-20.5T748-657q11-10 31-7t30 26q15 32 24 72.5t9 83.5q0 40-9.5 82T805-321q-8 22-26 24.5T745-308Zm-388-91L192-233q-10 10-25 10t-24-10q-10-9-10-23.5t10-24.5l200-199-200-200q-10-9-10-23.5t10-24.5q10-9 24.5-9t24.5 9l165 166-1-251q0-15 9.5-25t27.5-10q11 0 20.5 5t21.5 15l143 144q6 6 10 15t4 17q0 9-4 18t-10 14L439-480l139 139q6 6 10 15t4 18q0 8-4 17t-10 14L435-133q-12 11-21.5 16t-20.5 5q-18 0-27.5-10t-9.5-26l1-251Zm68-163 89-90-89-88v178Zm0 341 89-87-89-91v178Z"/></svg>