<svg xmlns="http://www.w3.org/2000/svg" height="48" viewBox="0 -960 960 960" width="48"><path d="M190.765-428q-23.182 0-38.473-15.235-15.292-15.236-15.292-37Q137-502 152.527-518t38.708-16q22.182 0 36.973 16.235 14.792 16.236 14.792 38Q243-458 227.973-443t-37.208 15Zm578 0q-22.182 0-36.973-15.235-14.792-15.236-14.792-37Q717-502 732.027-518t37.208-16q22.182 0 37.473 16.235 15.292 16.236 15.292 38Q822-458 806.473-443t-37.708 15ZM445-399 281-233q-10 10-24.5 10T233-233q-10-9-10-23.5t10-24.5l199-199-199-200q-10-9-10-23.5t10-24.5q9-9 23.5-9t24.5 9l164 166v-251q0-15 10.141-25t28.689-10q9.17 0 19.17 5 10 5 21 15l144 144q6 6.16 10.5 15.313 4.5 9.154 4.5 16.9 0 8.747-4.5 17.767T668-620L528-480l140 139q6 6.16 10.5 15.313 4.5 9.154 4.5 17.9 0 7.747-4.5 16.767T668-277L524-133q-11 11-21 16t-19.17 5q-18.548 0-28.689-10Q445-132 445-148v-251Zm69-163 90-90-90-88v178Zm0 341 90-87-90-91v178Z"/></svg>