<svg xmlns="http://www.w3.org/2000/svg" height="48" viewBox="0 -960 960 960" width="48">
    <path fill="aliceblue"
        d="M635-306q-13-15-13.5-33.125T635-371l64-63H409q-19.775 0-32.388-13.36Q364-460.719 364-479.86q0-20.14 12.612-32.64Q389.225-525 409-525h288l-66-67q-13-12.267-12.5-30.081t14.714-31.866Q644.661-666 664.705-665.5 684.75-665 699-653l141 142q4.909 6.327 8.955 15.008Q853-487.311 853-478.676q0 8.636-4.045 17.106Q844.909-453.1 840-448L699.006-305.089Q686-292 668-293t-33-13ZM181-97q-38.1 0-65.05-26.975Q89-150.95 89-188v-584q0-37.463 26.95-64.731Q142.9-864 181-864h251q20.2 0 33.1 13.763 12.9 13.763 12.9 32.816 0 20.053-12.9 32.737Q452.2-772 432-772H181v584h251q20.2 0 33.1 12.675 12.9 12.676 12.9 32.816 0 19.141-12.9 32.325Q452.2-97 432-97H181Z" />
</svg>