<svg xmlns="http://www.w3.org/2000/svg" height="48" viewBox="0 -960 960 960" width="48">
    <path fill="aliceblue"
        d="M479.825-438q-18.85 0-31.838-12.625Q435-463.25 435-484v-337q0-18.775 13.158-32.388 13.158-13.612 32-13.612t32.342 13.612Q526-839.775 526-821v337q0 20.75-13.45 33.375Q499.099-438 479.825-438ZM480-96q-79.667 0-148.756-30.233-69.088-30.234-120.933-82.078-51.844-51.845-81.578-120.933Q99-398.333 99-478q0-69.585 25-133.792Q149-676 197-727q11-15 31.5-16.5t36.413 11.935Q279-717 277.5-698.5T266-666q-37 40-56.5 88T190-478q0 121.104 84.5 206.052Q359.001-187 480.179-187t205.5-84.842Q770-356.685 770-477.637q0-52.363-19.144-100.167Q731.712-625.609 696-665q-11-17-11.5-36t12.5-31q15-14 36.5-11.5T769-725q45 51 69 113.969Q862-548.062 862-478q0 79.667-30.233 148.756-30.234 69.088-82.078 120.933-51.845 51.844-120.933 82.078Q559.667-96 480-96Z" />
</svg>