<svg xmlns="http://www.w3.org/2000/svg" height="48" viewBox="0 -960 960 960" width="48">
    <path
        d="M480-408q17 0 28.5-12t11.5-28v-160q0-17-11.5-28.5T480-648q-17 0-28.5 11.5T440-608v160q0 16 11.5 28t28.5 12Zm0 160q17 0 28.5-12t11.5-28q0-17-11.5-28.5T480-328q-17 0-28.5 11.5T440-288q0 16 11.5 28t28.5 12ZM298-49q-19.9 0-32.95-13.337Q252-75.675 252-95v-707q0-18.9 13.05-32.45Q278.1-848 298-848h85v-18q0-19.775 13.325-32.888Q409.65-912 429-912h103q18.375 0 31.688 13.112Q577-885.775 577-866v18h86q18.9 0 31.95 13.55T708-802v707q0 19.325-13.05 32.663Q681.9-49 663-49H298Z" />
</svg>