<svg xmlns="http://www.w3.org/2000/svg" height="48" viewBox="0 -960 960 960" width="48">
    <path
        d="M350-239 244-358q-11.739-12.932-18.87-29.496Q218-404.06 218-422v-176q0-37.8 26.6-64.9Q271.2-690 309-690h68l-46 44v-170q0-19.65 13.36-32.825Q357.719-862 376.772-862q20.053 0 33.14 13.175Q423-835.65 423-816v124h115v-124q0-19.65 12.86-32.825Q563.719-862 583.86-862 603-862 616-848.825T629-816v170l-45-44h67q38.213 0 65.106 27.1Q743-635.8 743-598v176q0 17.451-7.674 34.297Q727.652-370.857 717-358L611-239v95q0 19.2-13.463 32.1Q584.075-99 564-99H396.263Q375.8-99 362.9-111.9 350-124.8 350-144v-95Z" />
</svg>